<?xml version="1.0" encoding="utf-8"?>
<svg xmlns="http://www.w3.org/2000/svg" version="1.1" width="297.0022mm" height="60mm" viewBox="0 0.001 15.019 2.413">
  <style>
    :root { color: #101828; }
    @media (prefers-color-scheme: dark) {
      :root { color: #f8fafc; }
    }
  </style>
  <g style="fill: none; stroke: currentColor; stroke-width: 0.25; stroke-opacity: 1; stroke-linecap: round; stroke-linejoin: round;" transform="matrix(-1, 0, 0, 1, 108.735641, -64.661377)">
    <path fill="currentColor" fill-opacity="1" stroke="none" fill-rule="evenodd" d="M 96.8242,65.7446 96.7041,65.6199 96.6567,65.5879 96.6232,65.5794 96.5905,65.5886 96.5460,65.6234 96.5116,65.6685 96.5020,65.7054 96.5103,65.7923 96.5399,65.9207 96.5792,66.0622 96.6327,66.2465 96.6935,66.4582 96.7624,66.7341 96.8313,66.9968 96.8603,67.0599 96.8801,67.0729 96.9101,67.0621 96.9443,67.0218 96.9666,66.9648 96.9752,66.8815 96.9619,66.7647 96.9003,66.4689 96.8189,66.1601 96.7398,65.9314 96.8670,66.0872 96.9776,66.2215 97.0680,66.3322 97.1465,66.4249 97.2095,66.4962 97.2630,66.5521 97.3082,66.5877 97.3450,66.6116 97.3784,66.6187 97.4130,66.6132 97.4545,66.5949 97.4923,66.5682 97.5198,66.5378 97.5826,66.4192 97.7221,66.1073 97.8171,66.4510 97.8826,66.6829 97.9265,66.8375 97.9646,66.9540 98.0054,67.0557 98.0240,67.0729 98.0517,67.0625 98.0942,67.0194 98.1261,66.9644 98.1358,66.9136 98.1162,66.8082 97.9908,66.3143 97.8965,65.9358 97.8554,65.7280 97.8457,65.6293 97.8425,65.5942 97.8350,65.5746 97.8207,65.5626 97.7946,65.5579 97.7620,65.5683 97.6959,65.6150 97.6399,65.6741 97.6221,65.7196 97.5945,65.8389 97.5166,66.0516 97.3605,66.3998 97.0656,66.0395 Z"/>
    <path fill="currentColor" fill-opacity="1" stroke="none" fill-rule="evenodd" d="M 95.7211,65.5649 95.8023,65.5947 95.8938,65.6496 95.9774,65.7168 96.0574,65.7977 96.1340,65.8934 96.2004,65.9964 96.2603,66.1136 96.3134,66.2465 96.3534,66.3834 96.3770,66.5183 96.3848,66.6520 96.3737,66.7455 96.3398,66.8391 96.2801,66.9351 96.2224,66.9980 96.1628,67.0402 96.1002,67.0647 96.0329,67.0729 95.9345,67.0635 95.8368,67.0348 95.7384,66.9853 95.6380,66.9124 95.5201,66.7981 95.4205,66.6697 95.3383,66.5260 95.2759,66.3724 95.2404,66.2284 95.2304,66.1097 95.4359,66.1097 95.4461,66.2153 95.4783,66.3295 95.5358,66.4547 95.6079,66.5725 95.6872,66.6756 95.7736,66.7650 95.8711,66.8415 95.9512,66.8806 96.0185,66.8922 96.0624,66.8846 96.1015,66.8618 96.1375,66.8209 96.1623,66.7709 96.1789,66.7039 96.1850,66.6151 96.1787,66.5265 96.1588,66.4279 96.1232,66.3178 96.0539,66.1624 95.9758,66.0336 95.8860,65.9201 95.7962,65.8314 95.7302,65.7831 95.6753,65.7580 95.6286,65.7506 95.5843,65.7600 95.5405,65.7905 95.4954,65.8493 95.4638,65.9177 95.4433,66.0032 95.4359,66.1097 95.2304,66.1097 95.2289,66.0919 95.2366,65.9895 95.2591,65.8942 95.2964,65.8046 95.3490,65.7197 95.4154,65.6455 95.4863,65.5952 95.5629,65.5656 95.6475,65.5556 Z"/>
    <path fill="currentColor" fill-opacity="1" stroke="none" fill-rule="evenodd" d="M 94.1162,67.0729 94.1471,67.0659 94.1877,67.0408 94.2237,67.0054 94.2507,66.9636 94.3458,66.7472 94.5075,66.3642 94.6347,66.0646 94.7786,66.6068 94.8856,66.9957 94.9066,67.0454 94.9244,67.0671 94.9403,67.0729 94.9694,67.0625 95.0140,67.0194 95.0478,66.9643 95.0581,66.9136 95.0384,66.8082 94.9130,66.3143 94.8187,65.9358 94.7776,65.7280 94.7679,65.6293 94.7648,65.5942 94.7572,65.5746 94.7430,65.5625 94.7180,65.5579 94.6891,65.5663 94.6443,65.5995 94.6049,65.6424 94.5836,65.6792 94.4825,65.9218 94.2781,66.4110 94.1305,66.7471 94.0640,66.5438 94.0128,66.3416 93.9758,66.1471 93.9593,66.0099 93.9317,65.7009 93.9177,65.6103 93.9030,65.5766 93.8839,65.5590 93.8594,65.5532 93.8183,65.5652 93.7666,65.6092 93.7277,65.6661 93.7167,65.7126 93.7271,65.9137 93.7703,66.2167 93.8131,66.4279 93.8644,66.6234 93.9236,66.8042 93.9846,66.9465 94.0357,67.0253 94.0786,67.0624 Z"/>
    <path fill="currentColor" fill-opacity="1" stroke="none" fill-rule="evenodd" d="M 107.5202,65.1727 107.4989,65.1362 107.4719,65.1119 107.4090,65.0953 107.4057,65.0953 107.3658,65.1003 107.3336,65.1162 107.2958,65.1700 107.2949,65.1725 106.5760,67.0750 106.1072,67.0750 106.9076,64.9696 106.9400,64.8981 106.9788,64.8370 107.0211,64.7888 107.0689,64.7489 107.1814,64.6929 107.3262,64.6649 107.4022,64.6619 107.5007,64.6669 107.5895,64.6825 107.6579,64.7048 107.7195,64.7360 107.7704,64.7730 107.8156,64.8184 107.8889,64.9347 107.9038,64.9695 108.7359,67.0750 108.2703,67.0750 Z"/>
    <path fill="currentColor" fill-opacity="1" stroke="none" fill-rule="evenodd" d="M 105.9245,64.7010 105.9245,66.3174 105.9196,66.4310 105.9050,66.5355 105.8827,66.6249 105.8520,66.7063 105.8152,66.7761 105.7710,66.8386 105.7208,66.8925 105.6637,66.9395 105.5280,67.0130 105.3583,67.0593 105.1567,67.0750 104.6596,67.0750 104.5436,67.0701 104.4368,67.0555 104.3455,67.0332 104.2623,67.0025 104.1912,66.9658 104.1274,66.9217 104.0726,66.8718 104.0249,66.8151 103.9506,66.6810 103.9040,66.5142 103.8883,66.3174 103.8883,64.7010 104.3041,64.7010 104.3041,66.2858 104.3090,66.3632 104.3240,66.4322 104.3458,66.4861 104.3759,66.5329 104.4116,66.5700 104.4549,66.6004 104.5647,66.6407 104.6877,66.6523 105.1077,66.6523 105.1917,66.6475 105.2648,66.6331 105.3221,66.6120 105.3708,66.5835 105.4093,66.5496 105.4404,66.5093 105.4817,66.4083 105.4948,66.2858 105.4948,64.7010 Z"/>
    <path fill="currentColor" fill-opacity="1" stroke="none" fill-rule="evenodd" d="M 103.3543,64.7010 103.3543,65.1238 102.0545,65.1238 101.9862,65.1285 101.9264,65.1422 101.8761,65.1634 101.8335,65.1914 101.7704,65.2661 101.7359,65.3651 101.7304,65.4312 101.7354,65.4969 101.7508,65.5596 101.7740,65.6114 101.8067,65.6576 101.8443,65.6930 101.8903,65.7216 101.9416,65.7413 102.0010,65.7531 102.0545,65.7561 102.9750,65.7561 103.0633,65.7611 103.1392,65.7763 103.1937,65.7974 103.2397,65.8265 103.2748,65.8605 103.3030,65.9016 103.3400,66.0086 103.3508,66.1356 103.3508,67.0750 102.9281,67.0750 102.9281,66.2160 102.9232,66.1867 102.9084,66.1691 102.8734,66.1614 102.2602,66.1614 101.7212,67.0750 101.2514,67.0750 101.8021,66.1281 101.7226,66.1007 101.6507,66.0661 101.5267,65.9757 101.4283,65.8582 101.3562,65.7142 101.3136,65.5462 101.3040,65.4137 101.3090,65.3189 101.3239,65.2271 101.3475,65.1441 101.3806,65.0656 101.4205,64.9966 101.4691,64.9330 101.5237,64.8782 101.5866,64.8296 101.6556,64.7890 101.7328,64.7554 101.8173,64.7295 101.9101,64.7116 102.0685,64.7010 Z"/>
    <path fill="currentColor" fill-opacity="1" stroke="none" fill-rule="evenodd" d="M 99.8558,65.1727 99.8345,65.1362 99.8076,65.1119 99.7447,65.0953 99.7413,65.0953 99.7014,65.1003 99.6692,65.1162 99.6315,65.1700 99.6305,65.1725 98.9117,67.0750 98.4429,67.0750 99.2432,64.9696 99.2757,64.8981 99.3145,64.8370 99.3567,64.7888 99.4046,64.7489 99.5171,64.6929 99.6619,64.6649 99.7378,64.6619 99.8363,64.6669 99.9252,64.6825 99.9936,64.7048 100.0552,64.7360 100.1060,64.7730 100.1512,64.8184 100.2245,64.9347 100.2394,64.9695 101.0715,67.0750 100.6060,67.0750 Z"/>
  </g>
</svg>